<?xml version="1.0" ?><svg viewBox="0 0 100 100" xmlns="http://www.w3.org/2000/svg"><title/><circle cx="50" cy="50" fill="#e6e6e6" r="49.5"/><path d="M65.9264,29.95732v8.70715h-7.032V29.95732a8.89441,8.89441,0,0,0-17.78883,0v8.70715h-7.032V29.95732a15.9264,15.9264,0,1,1,31.85279,0Z" fill="#ffab80"/><path d="M67.23806,44.67H32.762A6.762,6.762,0,0,0,26,51.43193v19.89A14.64959,14.64959,0,0,0,40.652,85.974H59.348A14.64959,14.64959,0,0,0,74,71.32194v-19.89A6.7619,6.7619,0,0,0,67.23806,44.67Z" fill="#4d4d4d"/><path d="M67.238,41.06995H32.762A6.762,6.762,0,0,0,26,47.832v19.89A14.64961,14.64961,0,0,0,40.652,82.374H59.348A14.64961,14.64961,0,0,0,74,67.72192V47.832A6.762,6.762,0,0,0,67.238,41.06995Z" fill="#10556b"/><path d="M50,41.07V82.374H40.652A14.64959,14.64959,0,0,1,26,67.72194V47.832a6.762,6.762,0,0,1,6.762-6.762Z" fill="#2b687f"/><path d="M46.49608,61.35236a3.61357,3.61357,0,0,0-.12266.93424v7.88484a3.62658,3.62658,0,0,0,7.25315,0V62.2866a3.61375,3.61375,0,0,0-.12266-.93424,6,6,0,1,0-7.00784,0Z" fill="#e6e6e6"/></svg>